<svg width="219" height="157" viewBox="0 0 219 157" fill="none" xmlns="http://www.w3.org/2000/svg">
<rect width="219" height="157" rx="23" fill="#B4FFFA"/>
<path d="M34 40H39.5V29.5C39.5 29.5 39 25 44.5 21.5C50 18 58.5 18 58.5 18L61 28C61 28 54.5 28 53 31C51.5 34 52 40 52 40H61V52H53V76C53 76 53 77 52.5 77.5C52 78 51 78 51 78H41.5C41.5 78 40.4366 77.9366 40 77.5C39.5634 77.0634 39.5 76 39.5 76V52H34V40Z" fill="#138700"/>
<path fill-rule="evenodd" clip-rule="evenodd" d="M194 18.5L181 21V43.3209C177.724 39.4255 173.11 37 168 37C158.059 37 150 46.1782 150 57.5C150 68.8218 158.059 78 168 78C173.11 78 177.724 75.5745 181 71.6791V78H194V18.5ZM181 57.5C181 52.2533 177.194 48 172.5 48C167.806 48 164 52.2533 164 57.5C164 62.7467 167.806 67 172.5 67C177.194 67 181 62.7467 181 57.5Z" fill="#138700"/>
<path d="M69 99.5366L75.9951 98V101.585C75.9951 101.585 79.4927 98 84.4892 98C89.4858 98 88.9861 102.61 88.9861 102.61V119H82.9903V108.5C82.9903 108.5 83.4899 104.659 79.9924 104.659C76.4948 104.659 75.9951 108.5 75.9951 108.5V119H69V99.5366Z" fill="#138700"/>
<path fill-rule="evenodd" clip-rule="evenodd" d="M109.82 110.161C110.515 110.013 111.138 109.88 111.5 108.5C111.5 102.701 107.299 98 101.5 98C95.701 98 91 102.701 91 108.5C91 114.299 95.701 119 101.5 119C105.186 119 109.127 118.532 111 115.659L108.5 111.364C108.5 111.364 105 113.69 101.5 113.273C98 112.855 98.5 110.409 98.5 110.409H109C109.277 110.277 109.554 110.218 109.82 110.161ZM101.5 105.636H104C104 104.055 102.657 102.773 101 102.773C99.3431 102.773 98 104.055 98 105.636H101.5Z" fill="#138700"/>
<path d="M112 99H119V108C119 108 119.978 110.907 121.5 111C123.339 111.113 124 107 124 107V99H130V107C130 107 130.701 110.603 132.5 111C134.827 111.514 136 106 136 106V99H142V108C142 108 138.891 119.639 133.5 119C129.795 118.561 126.5 112.5 126.5 112.5C126.5 112.5 124.5 119 120 119C115.5 119 112 108 112 108V99Z" fill="#138700"/>
<path d="M152.5 96L156 101.5C156 101.5 151.89 102.028 151.5 104C151.212 105.459 153 107.5 153 107.5C153 107.5 155.746 110.237 156 112.5C156.511 117.047 147 120 147 120L143 114.5C143 114.5 147.146 114.009 148 112C149.102 109.408 144 106 144 106C144 106 141.5 104.5 146 100C150.5 95.5 152.5 96 152.5 96Z" fill="#138700"/>
<path fill-rule="evenodd" clip-rule="evenodd" d="M90.8741 81.1365C99.0059 78.1916 105 68.0537 105 56C105 41.6406 96.4934 30 86 30C75.5066 30 67 41.6406 67 56C67 67.5326 72.487 77.3115 80.0834 80.7147C80.2902 82.5533 80.8349 87.8177 81.1854 95.0895C81.756 94.9961 83.58 94.8006 85.7647 95.622C87.7416 96.3653 89.1279 97.386 89.7032 97.8553C90.018 89.8159 90.6146 83.5899 90.8741 81.1365ZM89.8901 121H81.124C80.6797 128.102 80 131.5 80 131.5V142H91V131.5C91 131.5 90.3345 127.951 89.8901 121ZM73.4081 44C73.4081 44 74.7339 44.7938 75.4081 45.5C76.8281 46.9877 76.6439 47.1873 75.9784 47.9088L75.9783 47.9088C75.1063 48.854 73.4081 50.6947 73.4081 57.5C73.4081 69.5 82.4081 78 82.4081 78C82.4081 78 71.4077 75.5 69.4081 61C67.4084 46.5 73.4081 44 73.4081 44Z" fill="#B70000"/>
<path fill-rule="evenodd" clip-rule="evenodd" d="M146 54.9646C146 67.0183 140.006 77.1562 131.874 80.1011C131.623 82.4705 131.059 88.3583 130.736 96H122.272C121.932 87.7258 121.308 81.6781 121.083 79.6793C113.487 76.276 108 66.4972 108 54.9646C108 43.4743 113.447 33.7249 121 30.2876V44.9646H123V29.5418C123.974 29.2561 124.976 29.0726 126 29V51.9646H128V29C129.024 29.0726 130.026 29.2561 131 29.5418V44.9646H133V30.2876C140.553 33.7249 146 43.4743 146 54.9646ZM122 121.778C121.564 127.646 121 130.465 121 130.465V140.965H132V130.465C132 130.465 131.436 127.458 131 121.56V122L126.737 117.5L122 122V121.778ZM116.408 44.4646C115.734 43.7584 114.408 42.9646 114.408 42.9646C114.408 42.9646 108.408 45.4646 110.408 59.9646C112.408 74.4646 123.408 76.9646 123.408 76.9646C123.408 76.9646 114.408 68.4646 114.408 56.4646C114.408 49.6593 116.106 47.8186 116.978 46.8734L116.978 46.8734C117.644 46.1519 117.828 45.9523 116.408 44.4646Z" fill="#B70000"/>
</svg>
